<?xml version="1.0" encoding="UTF-8" standalone="no"?><!DOCTYPE svg PUBLIC "-//W3C//DTD SVG 1.1//EN" "http://www.w3.org/Graphics/SVG/1.1/DTD/svg11.dtd"><svg width="100%" height="100%" viewBox="0 0 22 22" version="1.1" xmlns="http://www.w3.org/2000/svg" xmlns:xlink="http://www.w3.org/1999/xlink" xml:space="preserve" xmlns:serif="http://www.serif.com/" style="fill-rule:evenodd;clip-rule:evenodd;stroke-linejoin:round;stroke-miterlimit:2;"><g><path d="M11.545,0.162c-0.331,-0.216 -0.759,-0.216 -1.09,-0l-10,6.5c-0.284,0.184 -0.455,0.5 -0.455,0.838l-0,7c-0,0.338 0.171,0.654 0.455,0.838l10,6.5c0.331,0.216 0.759,0.216 1.09,0l10,-6.5c0.284,-0.184 0.455,-0.5 0.455,-0.838l0,-7c0,-0.338 -0.171,-0.654 -0.455,-0.838l-10,-6.5Zm-9.545,7.881l-0,5.914l9,5.85l9,-5.85l0,-5.914l-9,-5.85l-9,5.85Z" style="fill:#454f6b;"/><path d="M12,21l0,-6.5c-0,-0.552 -0.448,-1 -1,-1c-0.552,0 -1,0.448 -1,1l0,6.5c-0,0.552 0.448,1 1,1c0.552,0 1,-0.448 1,-1Z" style="fill:#454f6b;"/><path d="M11,13.279l9.427,-6.598c0.452,-0.317 1.076,-0.207 1.392,0.246c0.317,0.452 0.207,1.076 -0.246,1.392l-10,7c-0.344,0.241 -0.802,0.241 -1.146,0l-10,-7c-0.453,-0.316 -0.563,-0.94 -0.246,-1.392c0.316,-0.453 0.94,-0.563 1.392,-0.246l9.427,6.598Z" style="fill:#454f6b;"/><path d="M11,8.721l-9.427,6.598c-0.452,0.317 -1.076,0.207 -1.392,-0.246c-0.317,-0.452 -0.207,-1.076 0.246,-1.392l10,-7c0.344,-0.241 0.802,-0.241 1.146,-0l10,7c0.453,0.316 0.563,0.94 0.246,1.392c-0.316,0.453 -0.94,0.563 -1.392,0.246l-9.427,-6.598Z" style="fill:#454f6b;"/><path d="M10,1l0,6.5c-0,0.552 0.448,1 1,1c0.552,0 1,-0.448 1,-1l0,-6.5c-0,-0.552 -0.448,-1 -1,-1c-0.552,0 -1,0.448 -1,1Z" style="fill:#454f6b;"/></g></svg>