<?xml version="1.0" encoding="UTF-8" standalone="no"?><!DOCTYPE svg PUBLIC "-//W3C//DTD SVG 1.1//EN" "http://www.w3.org/Graphics/SVG/1.1/DTD/svg11.dtd"><svg width="100%" height="100%" viewBox="0 0 38 32" version="1.1" xmlns="http://www.w3.org/2000/svg" xmlns:xlink="http://www.w3.org/1999/xlink" xml:space="preserve" xmlns:serif="http://www.serif.com/" style="fill-rule:evenodd;clip-rule:evenodd;stroke-linejoin:round;stroke-miterlimit:2;"><path d="M0.823,17.236c0.217,-0.116 0.465,-0.181 0.728,-0.181l9.304,-0c0.856,-0 1.551,0.694 1.551,1.55c-0,0.856 -0.695,1.551 -1.551,1.551l-5.389,0l4.342,4.08l0.035,0.034c2.326,2.327 5.484,3.636 8.775,3.636c5.243,0 9.946,-3.324 11.695,-8.267c0.285,-0.807 1.172,-1.23 1.979,-0.945c0.807,0.286 1.23,1.172 0.945,1.979c-2.187,6.179 -8.065,10.335 -14.619,10.335c-4.103,-0 -8.042,-1.628 -10.947,-4.524l-4.57,-4.294l0,5.72c0,0.856 -0.694,1.55 -1.55,1.55c-0.856,0 -1.551,-0.694 -1.551,-1.55l-0,-9.305c-0,-0.256 0.062,-0.498 0.173,-0.711l0.018,-0.035l0.019,-0.033l0.005,-0.009c0.041,-0.069 0.087,-0.135 0.139,-0.198l0.03,-0.035l0.031,-0.035l0.033,-0.034l0.02,-0.02c0.1,-0.097 0.21,-0.179 0.326,-0.244l0.029,-0.015Zm30.929,-6.384l-4.342,-4.081l-0.035,-0.034c-2.326,-2.327 -5.485,-3.636 -8.775,-3.636c-5.243,0 -9.946,3.325 -11.695,8.268c-0.285,0.807 -1.172,1.23 -1.979,0.944c-0.807,-0.285 -1.23,-1.172 -0.945,-1.979c2.187,-6.179 8.065,-10.334 14.619,-10.334c4.103,0 8.041,1.628 10.947,4.523l4.569,4.294l0,-5.719c0,-0.856 0.695,-1.551 1.551,-1.551c0.856,0 1.551,0.695 1.551,1.551l-0,9.304c-0,0.257 -0.062,0.499 -0.173,0.712l-0.018,0.034l-0.019,0.034l-0.005,0.009c-0.041,0.068 -0.087,0.134 -0.139,0.197l-0.03,0.035l-0.032,0.036l-0.032,0.034l-0.02,0.02c-0.1,0.097 -0.21,0.178 -0.327,0.243l-0.028,0.016c-0.217,0.116 -0.465,0.181 -0.728,0.181l-9.304,0c-0.856,0 -1.551,-0.695 -1.551,-1.551c-0,-0.856 0.695,-1.55 1.551,-1.55l5.389,-0Z" style="fill:#454f6b;"/></svg>