<?xml version="1.0" encoding="UTF-8" standalone="no"?><!DOCTYPE svg PUBLIC "-//W3C//DTD SVG 1.1//EN" "http://www.w3.org/Graphics/SVG/1.1/DTD/svg11.dtd"><svg width="100%" height="100%" viewBox="0 0 22 24" version="1.1" xmlns="http://www.w3.org/2000/svg" xmlns:xlink="http://www.w3.org/1999/xlink" xml:space="preserve" xmlns:serif="http://www.serif.com/" style="fill-rule:evenodd;clip-rule:evenodd;stroke-linejoin:round;stroke-miterlimit:2;"><path d="M14.812,1.958c1.546,-1.048 2.444,-1.724 3.012,-1.886c0.4,-0.114 0.737,-0.085 1.033,0.033c0.358,0.142 0.709,0.444 0.972,1.059c0.535,1.246 0.634,2.631 0.292,3.932c0.889,1.13 1.379,2.532 1.379,3.981c0,2.479 -0.636,4.172 -1.583,5.349c-1.082,1.345 -2.603,2.036 -4.211,2.395c0.235,0.597 0.339,1.244 0.294,1.898l0,3.838c0,0.552 -0.448,1 -1,1c-0.552,0 -1,-0.448 -1,-1l0,-3.87c0,-0.026 0.001,-0.052 0.003,-0.078c0.054,-0.678 -0.187,-1.347 -0.661,-1.835c-0.265,-0.274 -0.352,-0.676 -0.223,-1.035c0.129,-0.359 0.451,-0.613 0.83,-0.655c1.627,-0.182 3.329,-0.568 4.41,-1.912c0.721,-0.897 1.141,-2.205 1.141,-4.094c-0,-1.139 -0.439,-2.236 -1.224,-3.061c-0.264,-0.277 -0.347,-0.681 -0.213,-1.039c0.34,-0.912 0.342,-1.913 0.009,-2.823c-0.094,0.053 -0.196,0.113 -0.286,0.172c-0.535,0.354 -1.249,0.884 -2.229,1.541c-0.24,0.161 -0.539,0.21 -0.818,0.135c-2.121,-0.575 -4.357,-0.575 -6.477,-0c-0.28,0.075 -0.578,0.026 -0.819,-0.135c-1.241,-0.832 -2.141,-1.146 -2.65,-1.264c-0.188,0.783 -0.141,1.61 0.144,2.374c0.134,0.358 0.051,0.762 -0.213,1.039c-0.791,0.831 -1.23,1.938 -1.224,3.09c0,1.874 0.42,3.172 1.141,4.066c1.084,1.343 2.791,1.739 4.422,1.942c0.377,0.047 0.694,0.302 0.82,0.66c0.126,0.357 0.039,0.755 -0.224,1.028c-0.468,0.483 -0.708,1.143 -0.661,1.814c0.001,0.024 0.002,0.047 0.002,0.07l0,3.87c0,0.552 -0.448,1 -1,1c-0.552,0 -1,-0.448 -1,-1l0,-1.746c-1.128,0.173 -1.995,0.052 -2.691,-0.21c-0.97,-0.365 -1.634,-1.021 -2.195,-1.707c-0.286,-0.35 -0.54,-0.706 -0.819,-0.996c-0.16,-0.166 -0.321,-0.316 -0.537,-0.37c-0.536,-0.134 -0.862,-0.678 -0.728,-1.213c0.134,-0.535 0.677,-0.862 1.213,-0.728c0.806,0.202 1.411,0.776 1.987,1.498c0.49,0.613 0.955,1.384 1.896,1.684c0.488,0.155 1.092,0.173 1.874,0.012l0,-0.067c-0.039,-0.647 0.067,-1.287 0.301,-1.877c-1.61,-0.372 -3.133,-1.067 -4.216,-2.408c-0.949,-1.175 -1.585,-2.858 -1.585,-5.316c-0.008,-1.462 0.483,-2.877 1.379,-4.017c-0.341,-1.301 -0.242,-2.686 0.292,-3.932c0.117,-0.274 0.35,-0.481 0.635,-0.565c-0,-0 1.362,-0.542 4.373,1.362c2.18,-0.518 4.452,-0.519 6.633,-0.003Z" style="fill:#454f6b;"/></svg>