<?xml version="1.0" encoding="UTF-8" standalone="no"?><!DOCTYPE svg PUBLIC "-//W3C//DTD SVG 1.1//EN" "http://www.w3.org/Graphics/SVG/1.1/DTD/svg11.dtd"><svg width="100%" height="100%" viewBox="0 0 523 535" version="1.1" xmlns="http://www.w3.org/2000/svg" xmlns:xlink="http://www.w3.org/1999/xlink" xml:space="preserve" xmlns:serif="http://www.serif.com/" style="fill-rule:evenodd;clip-rule:evenodd;stroke-linecap:round;stroke-linejoin:round;stroke-miterlimit:1.5;"><rect id="Artboard1" x="0" y="0" width="522.96" height="534.407" style="fill:none;"/><g><rect x="3.768" y="179.529" width="514.921" height="351.567" style="fill:#ddf5f5;"/><path d="M521.592,179.529c0,-1.603 -1.299,-2.903 -2.903,-2.903l-514.921,-0c-1.604,-0 -2.903,1.3 -2.903,2.903l-0,351.567c-0,1.604 1.299,2.904 2.903,2.904l514.921,0c1.604,0 2.903,-1.3 2.903,-2.904l0,-351.567Zm-514.92,2.904l-0,345.76l509.113,-0l0,-345.76l-509.113,-0Z" style="fill:#fff;"/><g><path d="M497.912,3.37c-5.438,-3.005 -32.224,35.195 -38.481,83.276c-8.134,62.514 -66.593,139.691 -76.356,240.996c-4.958,51.439 -30.244,71.395 -53.566,80.518c-5.93,2.32 -18.288,3.392 -22.845,4.668c-1.704,0.477 -5.98,48.958 -7.084,50.157c-9.05,9.832 -8.913,9.688 -21.489,21.428c-2.061,1.924 12.961,-70.14 9.862,-71.548c-1.403,-0.637 -12.2,-4.353 -13.715,-5.105c-0.002,-0.001 -0.003,-0.001 -0.005,-0.002c-22.774,-11.296 -39.116,-31.419 -44.476,-54.768c-5.361,-23.349 5.579,-44.503 16.854,-65.544c36.268,-67.682 96.174,-167.003 166.052,-211.265c53.243,-33.725 79.783,-75.522 85.249,-72.811Z" style="fill:#454f6b;"/><path d="M489.726,4.869c0.22,-0.234 0.437,-0.456 0.65,-0.667c2.243,-2.229 4.247,-3.429 5.678,-3.762c1.284,-0.299 2.373,-0.103 3.263,0.389c1.381,0.764 1.9,2.491 1.167,3.889c-0.605,1.155 -1.881,1.736 -3.104,1.507c-0.342,0.2 -1.149,0.688 -1.755,1.18c-0.565,0.459 -1.179,1 -1.842,1.618c-0.96,1.02 -1.997,2.257 -3.094,3.688c-9.946,12.984 -24.08,41.278 -28.378,74.31c-3.284,25.235 -14.652,52.851 -27.792,83.432c-19.425,45.21 -42.728,97.013 -48.554,157.467c-5.113,53.054 -31.344,73.535 -55.398,82.944c-5.475,2.142 -16.357,3.262 -21.729,4.423c-1.553,7.002 -4.058,32.735 -5.51,43.402c-0.326,2.396 -0.623,4.101 -0.833,4.81c-0.234,0.792 -0.584,1.24 -0.779,1.452c-9.115,9.904 -8.976,9.759 -21.644,21.584c-0.621,0.581 -1.253,0.753 -1.753,0.804c-0.724,0.074 -1.392,-0.095 -2,-0.522c-0.405,-0.285 -0.932,-0.778 -1.187,-1.713c-0.096,-0.353 -0.185,-1.189 -0.074,-2.443c0.723,-8.233 8.478,-47.345 10.124,-63.309c0.174,-1.691 0.228,-3.375 0.243,-4.364c-3.322,-1.244 -11.196,-3.991 -12.477,-4.627c-0.002,-0 -0.003,-0.001 -0.005,-0.002c-23.576,-11.693 -40.467,-32.548 -46.016,-56.719c-5.521,-24.048 5.512,-45.895 17.125,-67.565c36.467,-68.053 96.797,-167.842 167.057,-212.346c41.928,-26.559 67.193,-58.171 78.617,-68.86Zm-15.936,24.79c-13.997,14.233 -33.644,32.551 -59.574,48.975c-69.494,44.02 -128.976,142.873 -165.046,210.184c-10.938,20.411 -21.784,40.871 -16.583,63.522c5.172,22.527 20.965,41.919 42.936,52.817c0.002,0.001 0.003,0.001 0.005,0.002c1.505,0.746 12.233,4.429 13.626,5.063c0.637,0.289 1.384,0.864 1.789,2.052c0.312,0.911 0.426,3.154 0.142,6.357c-1.123,12.682 -7.09,43.823 -9.404,58.452c7.01,-6.575 8.32,-7.979 15.327,-15.592l0.044,-0.203c1.131,-5.858 3.661,-32.23 5.459,-43.628c0.462,-2.928 0.945,-4.988 1.295,-5.756c0.599,-1.311 1.539,-1.722 2.076,-1.872c4.5,-1.26 16.713,-2.285 22.569,-4.576c22.591,-8.837 46.932,-28.267 51.734,-78.093c5.889,-61.111 29.363,-113.502 48.999,-159.202c12.901,-30.026 24.144,-57.113 27.368,-81.89c2.837,-21.8 9.842,-41.597 17.238,-56.612Z" style="fill:#fff;"/><path d="M399.358,100.932c-2.418,-1.701 -51.468,64.889 -98.505,180.783c-12.364,30.462 -24.863,46.192 -34.455,55.354c-9.593,9.161 -12.987,11.719 -18.14,9.026c-0.001,0 -0.001,0 -0.001,-0c-5.153,-2.693 -6.344,-11.547 -3.242,-24.1c3.103,-12.552 11.122,-26.57 19.228,-40.579c45.934,-79.383 132.254,-181.979 135.115,-180.484Z" style="fill:#baefef;"/><path d="M420.347,99.289c-13.278,26.371 -47.446,97.259 -61.853,145.91c-8.814,29.764 -12.024,39.75 -22.142,74.986c-3.609,12.567 -6.657,15.262 -6.039,50.124c0,0.001 -0.001,0 -0.001,0c-5.626,-1.613 -8.831,-10.071 -8.721,-23.02c0.11,-12.949 8.585,-33.857 13.217,-49.237c26.247,-87.157 82.416,-199.658 85.539,-198.763Z" style="fill:#baefef;"/><path d="M396.146,131.579c12.952,-9.608 24.807,-15.765 36.203,-20.48c1.481,-0.612 3.18,0.092 3.793,1.573c0.613,1.481 -0.092,3.18 -1.573,3.793c-12.72,5.263 -26.03,12.387 -40.881,24.356c-0.954,0.769 -2.289,0.856 -3.335,0.217c-1.046,-0.639 -1.579,-1.866 -1.33,-3.066c3.334,-16.116 4.688,-30.632 2.85,-42.664c-0.242,-1.584 0.848,-3.066 2.432,-3.308c1.584,-0.242 3.067,0.847 3.309,2.431c1.633,10.697 0.92,23.271 -1.468,37.148Z" style="fill:#fff;"/><path d="M301.876,407.485c-0,-0 36.143,-188.747 112.953,-300.213c0.909,-1.32 0.576,-3.129 -0.743,-4.038c-1.32,-0.91 -3.13,-0.577 -4.039,0.743c-77.381,112.295 -113.875,302.414 -113.875,302.414c-0.301,1.574 0.731,3.097 2.305,3.399c1.574,0.301 3.097,-0.731 3.399,-2.305Z" style="fill:#fff;"/><path d="M422.021,197.793c1.269,-0.048 2.359,-0.914 2.692,-2.139l1.779,-6.539c0.23,-0.846 0.065,-1.751 -0.448,-2.462c-0.514,-0.711 -1.321,-1.152 -2.197,-1.199l-24.332,-1.318c-0.837,-0.046 -1.653,0.273 -2.237,0.873c-0.585,0.601 -0.882,1.424 -0.814,2.26l0.701,8.683c0.126,1.55 1.45,2.726 3.004,2.667l21.852,-0.826Zm-19.291,-5.082l16.94,-0.64l0.275,-1.013l-17.425,-0.944l0.21,2.597Z" style="fill:#fff;"/><path d="M231.683,320.185l45.027,6.792" style="fill:none;stroke:#fff;stroke-width:3px;"/><path d="M339.521,260.185c12.163,-9.078 32.003,-12.734 54.84,-14.059c1.6,-0.092 2.974,1.131 3.067,2.731c0.093,1.6 -1.131,2.974 -2.731,3.067c-23.125,1.341 -43.094,4.775 -54.096,14.893c-0.663,0.609 -1.571,0.877 -2.459,0.724c-0.887,-0.153 -1.653,-0.71 -2.074,-1.506c-10.34,-19.591 -23.016,-38.335 -39.176,-55.816c-1.088,-1.177 -1.016,-3.015 0.161,-4.103c1.177,-1.088 3.015,-1.016 4.103,0.161c15.652,16.931 28.111,35.019 38.365,53.908Z" style="fill:#fff;"/></g><path d="M281.209,478.332c0,0 -5.225,-17.553 -16.061,-29.058c-7.7,-8.174 -18.1,-13.357 -31.27,-8.328c-7.978,3.046 -13.609,8.466 -18.197,14.875c-4.317,6.031 -7.693,12.95 -11.394,19.393c-6.762,11.769 -14.649,21.945 -33.274,20.132c-18.601,-1.811 -22.332,-16.073 -26.078,-30.137c-4.36,-16.366 -8.766,-32.505 -28.843,-35.123c-12.636,-1.648 -19.733,1.444 -28.678,10.457c-8.207,8.269 -18.131,21.918 -36.577,41.94c-10.102,10.965 -17.858,14.915 -24.104,14.152c-5.482,-0.67 -9.39,-5.085 -12.354,-10.532c-4.968,-9.13 -7.135,-21.342 -7.719,-27.833c-0.144,-1.596 -1.556,-2.775 -3.152,-2.631c-1.596,0.144 -2.776,1.556 -2.632,3.152c0.632,7.02 3.029,20.213 8.402,30.088c3.931,7.223 9.482,12.632 16.75,13.52c7.415,0.906 17.088,-2.964 29.08,-15.981c18.375,-19.944 28.253,-33.547 36.427,-41.784c7.437,-7.493 13.301,-10.16 23.806,-8.79c9.996,1.303 15.16,6.777 18.489,13.861c2.417,5.143 3.918,11.083 5.494,16.999c4.362,16.377 9.466,32.313 31.127,34.422c21.634,2.106 31.017,-9.348 38.871,-23.019c3.606,-6.277 6.875,-13.03 11.081,-18.906c3.935,-5.497 8.704,-10.218 15.546,-12.83c10.543,-4.025 18.808,0.341 24.972,6.885c9.958,10.572 14.72,26.726 14.72,26.726c0.456,1.536 2.073,2.414 3.609,1.959c1.537,-0.455 2.415,-2.072 1.959,-3.609Z" style="fill:#fff;"/></g></svg>