<?xml version="1.0" encoding="UTF-8" standalone="no"?><!DOCTYPE svg PUBLIC "-//W3C//DTD SVG 1.1//EN" "http://www.w3.org/Graphics/SVG/1.1/DTD/svg11.dtd"><svg width="100%" height="100%" viewBox="0 0 172 38" version="1.1" xmlns="http://www.w3.org/2000/svg" xmlns:xlink="http://www.w3.org/1999/xlink" xml:space="preserve" xmlns:serif="http://www.serif.com/" style="fill-rule:evenodd;clip-rule:evenodd;stroke-linejoin:round;stroke-miterlimit:2;"><g><ellipse cx="18.668" cy="18.54" rx="18.668" ry="18.54" style="fill:#fff;"/><g><g><g><path d="M4.992,12.57c0.044,0.007 0.044,0.007 0.087,0.02l8.412,3.365c2.106,0.86 3.61,3.015 3.661,5.321c0.057,3.271 0.028,4.124 0.001,7.367c-0,-0 -0.056,0.374 -0.323,0.351c-0.148,-0.012 -0.263,-0.145 -0.273,-0.299c0.029,-3.272 0.03,-4.129 -0.001,-7.383c-0.036,-2.063 -1.354,-4.004 -3.266,-4.796l-0.022,-0.009l-8.411,-3.364c0,0 -0.115,-0.059 -0.158,-0.149c-0.087,-0.184 0.054,-0.426 0.293,-0.424Z" style="fill:#454f6b;fill-rule:nonzero;stroke:#454f6b;stroke-width:1px;"/><path d="M5.022,16.969l0.023,0.006l6.934,2.774c0.634,0.268 1.076,0.924 1.089,1.605c0.022,2.567 0.002,2.732 0,5.291l0,0.272c-0.012,0.134 -0.239,0.17 -0.255,-0c0.001,-2.623 0.013,-2.851 0.001,-5.485c-0.004,-0.613 -0.366,-1.201 -0.92,-1.442c0,0 -6.944,-2.778 -6.944,-2.778c0,0 -0.048,-0.024 -0.067,-0.063c-0.04,-0.082 0.025,-0.192 0.139,-0.18Z" style="fill:#454f6b;fill-rule:nonzero;stroke:#454f6b;stroke-width:1px;"/><path d="M32.447,12.576c0.248,0.075 0.307,0.439 0.046,0.567l-8.411,3.364c-1.881,0.769 -3.242,2.709 -3.288,4.781c-0.053,3.264 -0.028,4.11 -0.001,7.35c0,-0 -0.066,0.415 -0.361,0.35c-0.297,-0.065 -0.236,-0.558 -0.239,-0.95c-0.02,-2.893 -0.023,-3.397 0.001,-6.283c0.004,-0.461 0.013,-0.921 0.094,-1.372c0.351,-1.945 1.73,-3.676 3.571,-4.428l8.413,-3.365c0.03,-0.009 0.064,-0.03 0.175,-0.014Z" style="fill:#454f6b;fill-rule:nonzero;stroke:#454f6b;stroke-width:1px;"/><path d="M32.375,16.968c0.11,0.03 0.142,0.185 0.025,0.244l-6.932,2.773c-0.537,0.227 -0.919,0.787 -0.931,1.373c-0.02,2.53 -0.001,2.719 0,5.287l0,0.272c-0.012,0.138 -0.239,0.174 -0.255,-0c-0.001,-2.637 -0.017,-2.874 -0,-5.528c0.001,-0.114 0.003,-0.124 0.009,-0.179c0.007,-0.074 0.02,-0.148 0.038,-0.221c0.13,-0.544 0.522,-1.02 1.042,-1.24l6.935,-2.774c0.025,-0.007 0.008,-0.012 0.069,-0.007Z" style="fill:#454f6b;fill-rule:nonzero;stroke:#454f6b;stroke-width:1px;"/></g></g></g><text x="48.385px" y="30.478px" style="font-family:'Dosis-Light', 'Dosis';font-weight:300;font-size:29.959px;fill:#fff;">tar<tspan x="78.704px " y="30.478px ">d</tspan>igr<tspan x="121.037px 133.949px " y="30.478px 30.478px ">ad</tspan>es</text></g></svg>