<?xml version="1.0" encoding="UTF-8" standalone="no"?><!DOCTYPE svg PUBLIC "-//W3C//DTD SVG 1.1//EN" "http://www.w3.org/Graphics/SVG/1.1/DTD/svg11.dtd"><svg width="100%" height="100%" viewBox="0 0 32 32" version="1.1" xmlns="http://www.w3.org/2000/svg" xmlns:xlink="http://www.w3.org/1999/xlink" xml:space="preserve" xmlns:serif="http://www.serif.com/" style="fill-rule:evenodd;clip-rule:evenodd;stroke-linejoin:round;stroke-miterlimit:2;"><g><path d="M27.43,7.837c0,-2.163 -1.756,-3.918 -3.918,-3.918l-15.675,-0c-2.163,-0 -3.918,1.755 -3.918,3.918l-0,15.675c-0,2.162 1.755,3.918 3.918,3.918l15.675,0c2.162,0 3.918,-1.756 3.918,-3.918l0,-15.675Zm-2.612,0l-0,15.675c-0,0.721 -0.585,1.306 -1.306,1.306c-0,-0 -15.675,-0 -15.675,-0c-0.721,-0 -1.306,-0.585 -1.306,-1.306c0,-0 0,-15.675 0,-15.675c0,-0.721 0.585,-1.306 1.306,-1.306c0,0 15.675,0 15.675,0c0.721,0 1.306,0.585 1.306,1.306Z" style="fill:#454f6b;"/><path d="M20.899,11.756c0,-0.722 -0.585,-1.306 -1.306,-1.306l-7.837,-0c-0.722,-0 -1.306,0.584 -1.306,1.306l-0,7.837c-0,0.721 0.584,1.306 1.306,1.306l7.837,0c0.721,0 1.306,-0.585 1.306,-1.306l0,-7.837Zm-7.837,1.306l0,5.225l5.225,-0l-0,-5.225l-5.225,0Z" style="fill:#454f6b;"/><path d="M10.45,1.306l-0,3.919c-0,0.721 0.585,1.306 1.306,1.306c0.721,0 1.306,-0.585 1.306,-1.306l0,-3.919c0,-0.721 -0.585,-1.306 -1.306,-1.306c-0.721,-0 -1.306,0.585 -1.306,1.306Z" style="fill:#454f6b;"/><path d="M18.287,1.306l-0,3.919c-0,0.721 0.585,1.306 1.306,1.306c0.721,0 1.306,-0.585 1.306,-1.306l0,-3.919c0,-0.721 -0.585,-1.306 -1.306,-1.306c-0.721,0 -1.306,0.585 -1.306,1.306Z" style="fill:#454f6b;"/><path d="M10.45,26.124l-0,3.919c-0,0.721 0.585,1.306 1.306,1.306c0.721,-0 1.306,-0.585 1.306,-1.306l0,-3.919c0,-0.721 -0.585,-1.306 -1.306,-1.306c-0.721,-0 -1.306,0.585 -1.306,1.306Z" style="fill:#454f6b;"/><path d="M18.287,26.124l-0,3.919c-0,0.721 0.585,1.306 1.306,1.306c0.721,-0 1.306,-0.585 1.306,-1.306l0,-3.919c0,-0.721 -0.585,-1.306 -1.306,-1.306c-0.721,-0 -1.306,0.585 -1.306,1.306Z" style="fill:#454f6b;"/><path d="M26.124,13.062l3.919,0c0.721,0 1.306,-0.585 1.306,-1.306c-0,-0.721 -0.585,-1.306 -1.306,-1.306l-3.919,-0c-0.721,-0 -1.306,0.585 -1.306,1.306c-0,0.721 0.585,1.306 1.306,1.306Z" style="fill:#454f6b;"/><path d="M26.124,19.593l3.919,0c0.721,0 1.306,-0.585 1.306,-1.306c-0,-0.721 -0.585,-1.306 -1.306,-1.306l-3.919,-0c-0.721,-0 -1.306,0.585 -1.306,1.306c-0,0.721 0.585,1.306 1.306,1.306Z" style="fill:#454f6b;"/><path d="M1.306,13.062l3.919,0c0.721,0 1.306,-0.585 1.306,-1.306c0,-0.721 -0.585,-1.306 -1.306,-1.306l-3.919,-0c-0.721,-0 -1.306,0.585 -1.306,1.306c0,0.721 0.585,1.306 1.306,1.306Z" style="fill:#454f6b;"/><path d="M1.306,19.593l3.919,0c0.721,0 1.306,-0.585 1.306,-1.306c0,-0.721 -0.585,-1.306 -1.306,-1.306l-3.919,-0c-0.721,-0 -1.306,0.585 -1.306,1.306c-0,0.721 0.585,1.306 1.306,1.306Z" style="fill:#454f6b;"/></g></svg>