<?xml version="1.0" encoding="UTF-8" standalone="no"?><!DOCTYPE svg PUBLIC "-//W3C//DTD SVG 1.1//EN" "http://www.w3.org/Graphics/SVG/1.1/DTD/svg11.dtd"><svg width="100%" height="100%" viewBox="0 0 25 18" version="1.1" xmlns="http://www.w3.org/2000/svg" xmlns:xlink="http://www.w3.org/1999/xlink" xml:space="preserve" xmlns:serif="http://www.serif.com/" style="fill-rule:evenodd;clip-rule:evenodd;stroke-linejoin:round;stroke-miterlimit:2;"><g><path d="M23.511,3.177c-0.329,-1.312 -1.337,-2.351 -2.638,-2.719l-0.035,-0.009c-1.768,-0.432 -8.837,-0.449 -8.837,-0.449c-0,0 -7.087,0.02 -8.859,0.494c-1.315,0.372 -2.323,1.411 -2.651,2.723c-0.006,0.022 -0.011,0.044 -0.015,0.066c-0.325,1.805 -0.484,3.637 -0.475,5.472c-0.012,1.837 0.147,3.683 0.475,5.503c0.006,0.032 0.014,0.064 0.023,0.096c0.362,1.27 1.364,2.262 2.638,2.611c1.777,0.475 8.864,0.495 8.864,0.495c-0,0 7.086,-0.02 8.858,-0.494c1.315,-0.372 2.323,-1.411 2.652,-2.723c0.005,-0.022 0.01,-0.044 0.014,-0.066c0.323,-1.792 0.482,-3.61 0.476,-5.431c0.011,-1.838 -0.148,-3.684 -0.476,-5.504l-0.014,-0.065Zm-3.166,-0.79c-1.702,-0.404 -8.344,-0.387 -8.344,-0.387c-0,-0 -6.674,-0.02 -8.328,0.422c-0.604,0.171 -1.073,0.648 -1.235,1.252c-0.299,1.674 -0.446,3.371 -0.437,5.082c-0.011,1.708 0.134,3.413 0.434,5.093c0.181,0.578 0.644,1.026 1.224,1.185c1.668,0.446 8.342,0.426 8.342,0.426c-0,-0 6.673,0.02 8.327,-0.422c0.604,-0.171 1.073,-0.648 1.235,-1.252c0.297,-1.661 0.444,-3.345 0.438,-5.042c0.01,-1.713 -0.136,-3.424 -0.438,-5.11c-0.16,-0.598 -0.623,-1.072 -1.218,-1.247Z" style="fill:#454f6b;"/><path d="M8.751,12.02c-0,0.356 0.189,0.685 0.497,0.864c0.308,0.179 0.687,0.181 0.997,0.005l5.75,-3.27c0.313,-0.177 0.506,-0.509 0.506,-0.869c-0,-0.36 -0.193,-0.692 -0.506,-0.869l-5.75,-3.27c-0.31,-0.176 -0.689,-0.174 -0.997,0.005c-0.308,0.179 -0.497,0.508 -0.497,0.864l-0,6.54Zm2,-1.719l2.727,-1.551l-2.727,-1.551l-0,3.102Z" style="fill:#454f6b;"/></g></svg>