<?xml version="1.0" encoding="UTF-8" standalone="no"?><!DOCTYPE svg PUBLIC "-//W3C//DTD SVG 1.1//EN" "http://www.w3.org/Graphics/SVG/1.1/DTD/svg11.dtd"><svg width="100%" height="100%" viewBox="0 0 22 21" version="1.1" xmlns="http://www.w3.org/2000/svg" xmlns:xlink="http://www.w3.org/1999/xlink" xml:space="preserve" xmlns:serif="http://www.serif.com/" style="fill-rule:evenodd;clip-rule:evenodd;stroke-linejoin:round;stroke-miterlimit:2;"><g><path d="M15,6c-3.84,0 -7,3.16 -7,7c0,-0 0,7 0,7c0,0.552 0.448,1 1,1l4,0c0.552,0 1,-0.448 1,-1l0,-7c0,-0.549 0.451,-1 1,-1c0.549,0 1,0.451 1,1c0,-0 0,7 0,7c0,0.552 0.448,1 1,1l4,0c0.552,0 1,-0.448 1,-1l0,-7c0,-3.84 -3.16,-7 -7,-7Zm5,13l0,-6c0,-2.743 -2.257,-5 -5,-5c-2.743,0 -5,2.257 -5,5l0,6l2,0l0,-6c0,-1.646 1.354,-3 3,-3c1.646,0 3,1.354 3,3l0,6l2,0Z" style="fill:#454f6b;"/><path d="M6,8c0,-0.552 -0.448,-1 -1,-1l-4,0c-0.552,0 -1,0.448 -1,1l0,12c0,0.552 0.448,1 1,1l4,0c0.552,0 1,-0.448 1,-1l0,-12Zm-4,1l0,10l2,0l0,-10l-2,0Z" style="fill:#454f6b;"/><path d="M3,0c-1.656,0 -3,1.344 -3,3c0,1.656 1.344,3 3,3c1.656,0 3,-1.344 3,-3c0,-1.656 -1.344,-3 -3,-3Zm0,2c0.552,0 1,0.448 1,1c0,0.552 -0.448,1 -1,1c-0.552,0 -1,-0.448 -1,-1c0,-0.552 0.448,-1 1,-1Z" style="fill:#454f6b;"/></g></svg>