<?xml version="1.0" encoding="UTF-8" standalone="no"?><!DOCTYPE svg PUBLIC "-//W3C//DTD SVG 1.1//EN" "http://www.w3.org/Graphics/SVG/1.1/DTD/svg11.dtd"><svg width="100%" height="100%" viewBox="0 0 22 19" version="1.1" xmlns="http://www.w3.org/2000/svg" xmlns:xlink="http://www.w3.org/1999/xlink" xml:space="preserve" xmlns:serif="http://www.serif.com/" style="fill-rule:evenodd;clip-rule:evenodd;stroke-linejoin:round;stroke-miterlimit:2;"><path d="M9.957,4.993l-0,-0.032c-0,-2.722 2.239,-4.961 4.96,-4.961c1.227,0 2.403,0.455 3.307,1.263c0.735,-0.27 1.433,-0.636 2.074,-1.088c0.308,-0.218 0.719,-0.221 1.031,-0.009c0.312,0.212 0.46,0.596 0.37,0.962c-0.31,1.274 -0.931,2.447 -1.806,3.417c0.014,0.147 0.021,0.294 0.022,0.443c-0,4.47 -1.732,7.921 -4.344,10.153c-3.917,3.345 -9.86,3.962 -15.105,1.048c-0.367,-0.204 -0.545,-0.632 -0.432,-1.036c0.113,-0.404 0.488,-0.677 0.907,-0.66c1.532,0.061 3.049,-0.245 4.427,-0.883c-4.869,-3.089 -5.55,-8.835 -4.909,-11.324c0.14,-0.544 0.348,-0.959 0.571,-1.227c0.267,-0.321 0.579,-0.487 0.888,-0.539c0.459,-0.077 1.036,0.064 1.538,0.779c1.512,2.153 3.908,3.499 6.501,3.694Zm8.904,-2.035c-0.205,0.075 -0.413,0.145 -0.623,0.208c-0.341,0.103 -0.71,-0.004 -0.944,-0.273c-0.598,-0.687 -1.465,-1.083 -2.377,-1.083c-1.728,0 -3.15,1.422 -3.15,3.151l0.001,0.959c-0,0.491 -0.391,0.892 -0.882,0.905c-3.37,0.087 -6.577,-1.445 -8.627,-4.1c-0.086,0.311 -0.177,0.72 -0.194,1.092c-0.116,2.63 1.088,6.962 5.544,8.943c0.301,0.133 0.505,0.419 0.534,0.747c0.03,0.327 -0.121,0.644 -0.393,0.829c-1.005,0.682 -2.106,1.196 -3.258,1.528c3.622,0.922 7.287,0.135 9.903,-2.1c2.254,-1.925 3.709,-4.919 3.709,-8.773c-0.001,-0.196 -0.019,-0.392 -0.056,-0.585c-0.057,-0.296 0.038,-0.602 0.253,-0.814c0.202,-0.199 0.389,-0.411 0.56,-0.634Z" style="fill:#454f6b;"/></svg>