<?xml version="1.0" encoding="UTF-8" standalone="no"?><!DOCTYPE svg PUBLIC "-//W3C//DTD SVG 1.1//EN" "http://www.w3.org/Graphics/SVG/1.1/DTD/svg11.dtd"><svg width="100%" height="100%" viewBox="0 0 28 32" version="1.1" xmlns="http://www.w3.org/2000/svg" xmlns:xlink="http://www.w3.org/1999/xlink" xml:space="preserve" xmlns:serif="http://www.serif.com/" style="fill-rule:evenodd;clip-rule:evenodd;stroke-linejoin:round;stroke-miterlimit:2;"><g><path d="M27.907,29.457l-0,-3.101c-0,-4.252 -3.5,-7.751 -7.752,-7.751l-12.403,-0c-4.253,-0 -7.752,3.499 -7.752,7.751l-0,3.101c-0,0.856 0.695,1.551 1.55,1.551c0.856,-0 1.551,-0.695 1.551,-1.551l-0,-3.101c-0,-2.551 2.099,-4.651 4.651,-4.651c-0,0 12.403,0 12.403,0c2.551,0 4.651,2.1 4.651,4.651c0,0 0,3.101 0,3.101c0,0.856 0.695,1.551 1.55,1.551c0.856,-0 1.551,-0.695 1.551,-1.551Z" style="fill:#454f6b;"/><path d="M13.953,-0c-4.278,-0 -7.751,3.474 -7.751,7.752c-0,4.278 3.473,7.752 7.751,7.752c4.279,-0 7.752,-3.474 7.752,-7.752c0,-4.278 -3.473,-7.752 -7.752,-7.752Zm0,3.101c2.567,-0 4.652,2.084 4.652,4.651c-0,2.567 -2.085,4.651 -4.652,4.651c-2.567,0 -4.651,-2.084 -4.651,-4.651c0,-2.567 2.084,-4.651 4.651,-4.651Z" style="fill:#454f6b;"/></g></svg>