<?xml version="1.0" encoding="UTF-8" standalone="no"?><!DOCTYPE svg PUBLIC "-//W3C//DTD SVG 1.1//EN" "http://www.w3.org/Graphics/SVG/1.1/DTD/svg11.dtd"><svg width="100%" height="100%" viewBox="0 0 31 31" version="1.1" xmlns="http://www.w3.org/2000/svg" xmlns:xlink="http://www.w3.org/1999/xlink" xml:space="preserve" xmlns:serif="http://www.serif.com/" style="fill-rule:evenodd;clip-rule:evenodd;stroke-linejoin:round;stroke-miterlimit:2;"><path d="M15.074,0c8.271,0.027 14.977,6.749 14.977,15.025c-0,8.293 -6.733,15.026 -15.026,15.026c-8.292,-0 -15.025,-6.733 -15.025,-15.026c-0,-8.276 6.706,-14.998 14.977,-15.025l0.048,-0l0.049,0Zm12.17,16.391l-5.457,0c-0.307,3.774 -1.57,7.397 -3.655,10.531c4.857,-1.267 8.547,-5.431 9.112,-10.531Zm-18.98,0l-5.457,0c0.565,5.101 4.255,9.265 9.112,10.531c-2.085,-3.134 -3.348,-6.757 -3.655,-10.531Zm10.78,0l-8.038,0c0.343,3.705 1.739,7.237 4.019,10.175c2.28,-2.937 3.676,-6.469 4.019,-10.175Zm-7.125,-13.262c-4.857,1.266 -8.547,5.43 -9.112,10.53l5.457,0c0.307,-3.773 1.57,-7.397 3.655,-10.53Zm7.125,10.53c-0.343,-3.704 -1.738,-7.236 -4.019,-10.175c-2.28,2.938 -3.675,6.47 -4.019,10.175l8.038,0Zm-0.912,-10.53c2.085,3.133 3.348,6.757 3.655,10.53l5.457,0c-0.565,-5.1 -4.256,-9.264 -9.112,-10.53Z" style="fill:#454f6b;"/></svg>