<?xml version="1.0" encoding="UTF-8" standalone="no"?><!DOCTYPE svg PUBLIC "-//W3C//DTD SVG 1.1//EN" "http://www.w3.org/Graphics/SVG/1.1/DTD/svg11.dtd"><svg width="100%" height="100%" viewBox="0 0 662 701" version="1.1" xmlns="http://www.w3.org/2000/svg" xmlns:xlink="http://www.w3.org/1999/xlink" xml:space="preserve" xmlns:serif="http://www.serif.com/" style="fill-rule:evenodd;clip-rule:evenodd;stroke-linejoin:round;stroke-miterlimit:2;"><rect id="Artboard1" x="0" y="0" width="661.6" height="700.483" style="fill:none;"/><g><rect x="48.814" y="3.062" width="506.328" height="689.108" style="fill:#ddf5f5;"/><path d="M558.126,3.062c0,-1.648 -1.336,-2.984 -2.984,-2.984l-506.328,0c-1.648,0 -2.984,1.336 -2.984,2.984l-0,689.108c-0,1.649 1.336,2.985 2.984,2.985l506.328,-0c1.648,-0 2.984,-1.336 2.984,-2.985l0,-689.108Zm-506.328,2.985l-0,683.139l500.36,0l-0,-683.139l-500.36,-0Z" style="fill:#fff;"/><path d="M263.768,570.179c-11.581,0.183 -22.189,-0.778 -31.728,-2.656c-22.685,-4.464 -39.425,-14.128 -49.089,-25.915c-8.391,-10.235 -11.555,-22.096 -8.889,-33.811c2.608,-11.462 10.88,-22.887 25.762,-32.402c16.953,-10.838 32.51,-12.468 45.187,-7.782c12.702,4.695 22.639,15.811 28.205,30.966c6.467,17.608 7,40.832 -0.902,65.294c26.286,-1.681 57.222,-9.267 91.754,-25.176c36.824,-16.964 61.776,-23.113 78.391,-22.813c11.905,0.216 19.79,3.702 24.901,8.848c7.63,7.683 9.159,19.343 7.975,30.638c-1.684,16.062 -8.669,31.223 -8.669,31.223c-0.69,1.496 -2.464,2.151 -3.96,1.461c-1.495,-0.689 -2.15,-2.463 -1.461,-3.959c0,0 6.571,-14.25 8.154,-29.347c0.994,-9.477 0.128,-19.365 -6.274,-25.81c-4.245,-4.274 -10.886,-6.908 -20.774,-7.086c-16.075,-0.291 -40.159,5.854 -75.786,22.266c-36.395,16.767 -68.918,24.451 -96.383,25.846c-12.997,34.387 -42.816,70.474 -96.244,96.37c-1.482,0.718 -3.268,0.098 -3.987,-1.384c-0.718,-1.482 -0.098,-3.269 1.384,-3.987c50.585,-24.517 79.429,-58.367 92.433,-90.784Zm2.237,-6.011c8.166,-23.753 7.912,-46.371 1.609,-63.532c-4.903,-13.346 -13.485,-23.29 -24.672,-27.425c-11.211,-4.144 -24.911,-2.372 -39.903,7.213c-13.258,8.475 -20.834,18.486 -23.158,28.697c-2.266,9.957 0.553,20.004 7.685,28.703c8.963,10.932 24.588,19.704 45.626,23.843c9.814,1.932 20.786,2.849 32.813,2.501Z" style="fill:#fff;"/><g><path d="M259.408,461.382c-4.227,-3.386 -7.173,-8.34 -7.927,-14.063c-2.102,-15.959 -5.135,-38.994 -7.448,-56.559c-1.908,-14.487 -8.815,-27.854 -19.528,-37.792c-22.6,-20.845 -36.746,-50.709 -36.746,-83.851c-0,-63.039 51.18,-114.219 114.219,-114.219c63.039,0 114.219,51.18 114.219,114.219c-0,33.142 -14.146,63.006 -36.722,83.876c-10.707,9.933 -17.609,23.292 -19.516,37.772c-2.349,17.56 -5.383,40.595 -7.484,56.554c-0.784,5.955 -3.943,11.079 -8.448,14.467l-2.694,24.087c-1.202,10.744 -10.286,18.869 -21.097,18.869c-11.328,0 -25.664,0 -36.991,0c-10.812,0 -19.896,-8.125 -21.098,-18.869l-2.739,-24.491Z" style="fill:#454f6b;"/><path d="M256.574,462.893c-4.29,-3.812 -7.253,-9.119 -8.052,-15.184c-2.101,-15.959 -5.135,-38.995 -7.448,-56.559c-1.817,-13.798 -8.396,-26.529 -18.593,-35.989c-23.19,-21.39 -37.706,-52.035 -37.706,-86.044c-0,-64.686 52.517,-117.203 117.203,-117.203c64.686,0 117.203,52.517 117.203,117.203c-0,34.008 -14.515,64.652 -37.676,86.064c-10.198,9.46 -16.772,22.183 -18.588,35.98c-2.349,17.557 -5.382,40.59 -7.484,56.548c-0.831,6.311 -4.005,11.8 -8.578,15.638l-2.556,22.857c-1.371,12.255 -11.732,21.522 -24.063,21.522c-11.328,0 -25.664,0 -36.991,0c-12.332,0 -22.693,-9.267 -24.064,-21.522l-2.607,-23.311Zm5.8,-1.842c-0.088,-0.786 -0.484,-1.504 -1.1,-1.998c-3.644,-2.919 -6.185,-7.19 -6.835,-12.123c-2.101,-15.959 -5.135,-38.995 -7.448,-56.559c-1.999,-15.177 -9.234,-29.18 -20.457,-39.591c-22.015,-20.305 -35.791,-49.388 -35.791,-81.663c0,-61.392 49.843,-111.235 111.235,-111.235c61.392,0 111.235,49.843 111.235,111.235c-0,32.276 -13.778,61.36 -35.764,81.685c-11.22,10.409 -18.451,24.405 -20.449,39.573c-2.348,17.556 -5.382,40.594 -7.484,56.555c-0.676,5.134 -3.4,9.55 -7.283,12.472c-0.657,0.494 -1.081,1.236 -1.172,2.053l-2.694,24.086c-1.032,9.234 -8.84,16.217 -18.131,16.217c-11.328,0 -25.664,0 -36.991,0c-9.292,0 -17.1,-6.983 -18.132,-16.217c-0,0 -2.739,-24.49 -2.739,-24.49Z" style="fill:#fff;"/><path d="M337.562,469.558l-71.168,-0l1.707,15.264c0.876,7.834 7.499,13.757 15.381,13.757c11.328,0 25.664,0 36.991,0c7.883,0 14.506,-5.923 15.382,-13.757l1.707,-15.264Z" style="fill:#fff;"/><circle cx="301.978" cy="269.38" r="107.099" style="fill:#ddf5f5;"/><circle cx="301.978" cy="292.439" r="72.865" style="fill:#f2ffff;"/><path d="M259.004,347.991c1.09,1.008 1.271,2.666 0.425,3.886c-0.847,1.221 -2.463,1.631 -3.789,0.963c-29.342,-14.716 -49.512,-45.079 -49.512,-80.117c-0,-49.414 40.118,-89.532 89.532,-89.532c11.792,0 23.055,2.285 33.369,6.435c0.757,0.319 1.168,1.143 0.967,1.94c-0.202,0.797 -0.955,1.327 -1.773,1.248c-2.902,-0.274 -5.843,-0.419 -8.817,-0.419c-49.414,0 -89.532,40.118 -89.532,89.532c-0,26.146 11.231,49.689 29.13,66.064Z" style="fill:#fff;"/><path d="M295.059,351.874l20.168,20.169c1.165,1.164 1.165,3.055 0,4.22c-1.164,1.165 -3.055,1.165 -4.22,-0l-22.279,-22.279c-1.165,-1.165 -1.165,-3.055 0,-4.22l22.279,-22.279c1.165,-1.164 3.056,-1.164 4.22,0c1.165,1.165 1.165,3.056 0,4.22l-20.168,20.169Z" style="fill:#454f6b;"/><path d="M308.897,351.874l-20.169,-20.169c-1.164,-1.164 -1.164,-3.055 0,-4.22c1.165,-1.164 3.056,-1.164 4.221,0l22.278,22.279c1.166,1.165 1.166,3.055 0,4.22l-22.278,22.279c-1.165,1.165 -3.056,1.165 -4.221,-0c-1.164,-1.165 -1.164,-3.056 0,-4.22l20.169,-20.169Z" style="fill:#454f6b;"/><path d="M295.059,307.317l20.168,20.168c1.165,1.165 1.165,3.056 0,4.22c-1.164,1.165 -3.055,1.165 -4.22,0l-22.279,-22.278c-1.165,-1.166 -1.165,-3.055 0,-4.221l22.279,-22.278c1.165,-1.165 3.056,-1.165 4.22,-0c1.165,1.164 1.165,3.055 0,4.22l-20.168,20.169Z" style="fill:#454f6b;"/><path d="M308.897,307.317l-20.169,-20.169c-1.164,-1.165 -1.164,-3.056 0,-4.22c1.165,-1.165 3.056,-1.165 4.221,-0l22.278,22.278c1.166,1.166 1.166,3.055 0,4.221l-22.278,22.278c-1.165,1.165 -3.056,1.165 -4.221,0c-1.164,-1.164 -1.164,-3.055 0,-4.22l20.169,-20.168Z" style="fill:#454f6b;"/><path d="M279.083,288.022l45.789,-0c1.647,-0 2.984,-1.337 2.984,-2.984c0,-1.647 -1.337,-2.984 -2.984,-2.984l-45.789,-0c-1.647,-0 -2.984,1.337 -2.984,2.984c0,1.647 1.337,2.984 2.984,2.984Z" style="fill:#454f6b;"/><path d="M282.068,289.543l-0,-9.01c-0,-1.647 -1.338,-2.984 -2.985,-2.984c-1.647,-0 -2.984,1.337 -2.984,2.984l0,9.01c0,1.647 1.337,2.984 2.984,2.984c1.647,-0 2.985,-1.337 2.985,-2.984Z" style="fill:#454f6b;"/><path d="M327.856,289.543l0,-9.01c0,-1.647 -1.337,-2.984 -2.984,-2.984c-1.647,-0 -2.984,1.337 -2.984,2.984l0,9.01c0,1.647 1.337,2.984 2.984,2.984c1.647,-0 2.984,-1.337 2.984,-2.984Z" style="fill:#454f6b;"/><rect x="249.094" y="365.304" width="105.767" height="29.63" style="fill:#454f6b;"/><ellipse cx="327.808" cy="226.759" rx="25.83" ry="20.3" style="fill:#fff;"/><g><path d="M305.957,118l-0,-73.46c-0,-2.196 -1.783,-3.979 -3.979,-3.979c-2.196,-0 -3.979,1.783 -3.979,3.979l0,73.46c0,2.196 1.783,3.978 3.979,3.978c2.196,0 3.979,-1.782 3.979,-3.978Z" style="fill:#fff;"/><path d="M267.491,122.016l-19.013,-70.957c-0.569,-2.121 -2.752,-3.382 -4.873,-2.813c-2.121,0.568 -3.382,2.752 -2.814,4.873l19.013,70.957c0.569,2.121 2.752,3.382 4.873,2.813c2.121,-0.568 3.382,-2.752 2.814,-4.873Z" style="fill:#fff;"/><path d="M231.375,135.852l-36.73,-63.619c-1.098,-1.901 -3.534,-2.554 -5.435,-1.456c-1.902,1.098 -2.555,3.533 -1.457,5.435l36.73,63.618c1.098,1.902 3.534,2.555 5.435,1.457c1.902,-1.098 2.555,-3.534 1.457,-5.435Z" style="fill:#fff;"/><path d="M200.071,158.563l-51.945,-51.944c-1.552,-1.553 -4.074,-1.553 -5.626,-0c-1.553,1.553 -1.553,4.074 -0,5.627l51.944,51.944c1.552,1.553 4.074,1.553 5.627,-0c1.552,-1.553 1.552,-4.074 -0,-5.627Z" style="fill:#fff;"/><path d="M175.711,188.603l-63.618,-36.73c-1.902,-1.098 -4.337,-0.446 -5.435,1.456c-1.098,1.902 -0.446,4.337 1.456,5.435l63.618,36.73c1.902,1.098 4.337,0.446 5.435,-1.456c1.098,-1.902 0.446,-4.337 -1.456,-5.435Z" style="fill:#fff;"/><path d="M159.956,223.924l-70.956,-19.013c-2.122,-0.569 -4.305,0.692 -4.874,2.813c-0.568,2.121 0.693,4.305 2.814,4.873l70.957,19.013c2.121,0.568 4.304,-0.692 4.873,-2.813c0.568,-2.122 -0.692,-4.305 -2.814,-4.873Z" style="fill:#fff;"/><path d="M153.88,262.118l-73.46,0c-2.196,0 -3.978,1.783 -3.978,3.979c-0,2.196 1.782,3.979 3.978,3.979l73.46,0c2.196,0 3.979,-1.783 3.979,-3.979c0,-2.196 -1.783,-3.979 -3.979,-3.979Z" style="fill:#fff;"/><path d="M157.897,300.584l-70.957,19.013c-2.121,0.569 -3.382,2.752 -2.814,4.873c0.569,2.121 2.752,3.382 4.874,2.814l70.956,-19.013c2.122,-0.568 3.382,-2.752 2.814,-4.873c-0.569,-2.121 -2.752,-3.382 -4.873,-2.814Z" style="fill:#fff;"/><path d="M171.732,336.7l-63.618,36.73c-1.902,1.098 -2.554,3.534 -1.456,5.435c1.098,1.902 3.533,2.555 5.435,1.457l63.618,-36.73c1.902,-1.098 2.554,-3.534 1.456,-5.435c-1.098,-1.902 -3.533,-2.555 -5.435,-1.457Z" style="fill:#fff;"/><path d="M194.444,368.005l-51.944,51.944c-1.553,1.552 -1.553,4.074 -0,5.627c1.552,1.552 4.074,1.552 5.626,-0l51.945,-51.945c1.552,-1.552 1.552,-4.074 -0,-5.626c-1.553,-1.553 -4.075,-1.553 -5.627,-0Z" style="fill:#fff;"/><path d="M344.152,124.076l19.012,-70.957c0.569,-2.121 -0.692,-4.305 -2.813,-4.873c-2.121,-0.569 -4.305,0.692 -4.873,2.813l-19.013,70.957c-0.568,2.121 0.692,4.305 2.814,4.873c2.121,0.569 4.304,-0.692 4.873,-2.813Z" style="fill:#fff;"/><path d="M379.472,139.83l36.73,-63.618c1.098,-1.902 0.446,-4.337 -1.456,-5.435c-1.902,-1.098 -4.337,-0.445 -5.435,1.456l-36.73,63.619c-1.098,1.901 -0.445,4.337 1.456,5.435c1.902,1.098 4.337,0.445 5.435,-1.457Z" style="fill:#fff;"/><path d="M409.512,164.19l51.944,-51.944c1.553,-1.553 1.553,-4.074 0,-5.627c-1.553,-1.553 -4.074,-1.553 -5.627,-0l-51.944,51.944c-1.553,1.553 -1.553,4.074 0,5.627c1.553,1.553 4.074,1.553 5.627,-0Z" style="fill:#fff;"/><path d="M432.224,195.494l63.618,-36.73c1.901,-1.098 2.554,-3.533 1.456,-5.435c-1.098,-1.902 -3.533,-2.554 -5.435,-1.456l-63.618,36.73c-1.902,1.098 -2.555,3.533 -1.457,5.435c1.098,1.902 3.534,2.554 5.436,1.456Z" style="fill:#fff;"/><path d="M446.059,231.61l70.957,-19.013c2.121,-0.568 3.382,-2.752 2.813,-4.873c-0.568,-2.121 -2.752,-3.382 -4.873,-2.813l-70.957,19.013c-2.121,0.568 -3.381,2.751 -2.813,4.873c0.568,2.121 2.752,3.381 4.873,2.813Z" style="fill:#fff;"/><path d="M450.075,270.076l73.46,0c2.196,0 3.979,-1.783 3.979,-3.979c0,-2.196 -1.783,-3.979 -3.979,-3.979l-73.46,0c-2.195,0 -3.978,1.783 -3.978,3.979c-0,2.196 1.783,3.979 3.978,3.979Z" style="fill:#fff;"/><path d="M443.999,308.271l70.957,19.013c2.121,0.568 4.305,-0.693 4.873,-2.814c0.569,-2.121 -0.692,-4.304 -2.813,-4.873l-70.957,-19.013c-2.121,-0.568 -4.305,0.693 -4.873,2.814c-0.568,2.121 0.692,4.305 2.813,4.873Z" style="fill:#fff;"/><path d="M428.245,343.592l63.618,36.73c1.902,1.098 4.337,0.445 5.435,-1.457c1.098,-1.901 0.445,-4.337 -1.456,-5.435l-63.618,-36.73c-1.902,-1.098 -4.338,-0.445 -5.436,1.457c-1.098,1.901 -0.445,4.337 1.457,5.435Z" style="fill:#fff;"/><path d="M403.885,373.631l51.944,51.945c1.553,1.552 4.074,1.552 5.627,-0c1.553,-1.553 1.553,-4.075 0,-5.627l-51.944,-51.944c-1.553,-1.553 -4.074,-1.553 -5.627,-0c-1.553,1.552 -1.553,4.074 0,5.626Z" style="fill:#fff;"/></g></g><g><path d="M65.007,353.211l-60.345,23.888l104.606,264.25l60.345,-23.889l-104.606,-264.249Z" style="fill:#454f6b;"/><path d="M67.782,352.112c-0.607,-1.532 -2.341,-2.283 -3.873,-1.676l-60.345,23.888c-1.533,0.607 -2.283,2.341 -1.676,3.873l104.605,264.25c0.607,1.532 2.341,2.283 3.873,1.676l60.345,-23.888c1.533,-0.606 2.283,-2.34 1.677,-3.873l-104.606,-264.25Zm-59.247,26.663l102.409,258.701l54.796,-21.692l-102.409,-258.7l-54.796,21.691Z" style="fill:#fff;"/><path d="M19.83,371.095l104.605,264.249c0.607,1.532 2.342,2.283 3.873,1.677c1.532,-0.607 2.283,-2.342 1.677,-3.873l-104.606,-264.25c-0.606,-1.531 -2.342,-2.283 -3.873,-1.676c-1.531,0.606 -2.282,2.341 -1.676,3.873Z" style="fill:#fff;"/><path d="M24.51,427.237l10.774,-4.265c1.531,-0.606 2.282,-2.341 1.676,-3.873c-0.606,-1.531 -2.341,-2.282 -3.873,-1.676l-10.774,4.265c-1.531,0.606 -2.282,2.342 -1.676,3.873c0.606,1.531 2.341,2.282 3.873,1.676Z" style="fill:#fff;"/><path d="M39.422,464.909l10.775,-4.265c1.531,-0.606 2.282,-2.342 1.676,-3.873c-0.606,-1.531 -2.342,-2.283 -3.873,-1.676l-10.774,4.265c-1.532,0.606 -2.283,2.341 -1.676,3.873c0.606,1.531 2.341,2.282 3.872,1.676Z" style="fill:#fff;"/><path d="M54.335,502.581l10.774,-4.265c1.532,-0.607 2.283,-2.342 1.676,-3.873c-0.606,-1.532 -2.341,-2.283 -3.873,-1.677l-10.774,4.265c-1.531,0.606 -2.282,2.342 -1.676,3.873c0.606,1.532 2.342,2.283 3.873,1.677Z" style="fill:#fff;"/><path d="M69.248,540.252l10.774,-4.265c1.531,-0.606 2.282,-2.341 1.676,-3.873c-0.606,-1.531 -2.342,-2.282 -3.873,-1.676l-10.774,4.265c-1.531,0.606 -2.282,2.342 -1.676,3.873c0.606,1.531 2.341,2.282 3.873,1.676Z" style="fill:#fff;"/><path d="M69.248,540.252l10.774,-4.265c1.531,-0.606 2.282,-2.341 1.676,-3.873c-0.606,-1.531 -2.342,-2.282 -3.873,-1.676l-10.774,4.265c-1.531,0.606 -2.282,2.342 -1.676,3.873c0.606,1.531 2.341,2.282 3.873,1.676Z" style="fill:#fff;"/><path d="M84.16,577.924l10.774,-4.265c1.532,-0.606 2.283,-2.342 1.677,-3.873c-0.606,-1.531 -2.342,-2.283 -3.873,-1.676l-10.774,4.265c-1.532,0.606 -2.283,2.341 -1.677,3.873c0.607,1.531 2.342,2.282 3.873,1.676Z" style="fill:#fff;"/><path d="M99.073,615.595l10.774,-4.265c1.532,-0.606 2.283,-2.341 1.676,-3.872c-0.606,-1.532 -2.341,-2.283 -3.873,-1.677l-10.774,4.265c-1.531,0.606 -2.282,2.342 -1.676,3.873c0.606,1.532 2.342,2.283 3.873,1.676Z" style="fill:#fff;"/><path d="M17.053,408.401l5.388,-2.132c1.531,-0.606 2.282,-2.342 1.676,-3.873c-0.606,-1.531 -2.342,-2.283 -3.873,-1.676l-5.387,2.132c-1.532,0.606 -2.283,2.342 -1.676,3.873c0.606,1.531 2.341,2.283 3.872,1.676Z" style="fill:#fff;"/><path d="M31.966,446.073l5.387,-2.132c1.532,-0.607 2.283,-2.342 1.676,-3.873c-0.606,-1.532 -2.341,-2.283 -3.873,-1.677l-5.387,2.133c-1.531,0.606 -2.282,2.341 -1.676,3.873c0.606,1.531 2.342,2.282 3.873,1.676Z" style="fill:#fff;"/><path d="M46.879,483.745l5.387,-2.133c1.531,-0.606 2.282,-2.341 1.676,-3.873c-0.606,-1.531 -2.342,-2.282 -3.873,-1.676l-5.387,2.132c-1.531,0.607 -2.282,2.342 -1.676,3.873c0.606,1.532 2.341,2.283 3.873,1.677Z" style="fill:#fff;"/><path d="M61.791,521.416l5.387,-2.132c1.532,-0.606 2.283,-2.342 1.677,-3.873c-0.606,-1.531 -2.342,-2.283 -3.873,-1.676l-5.387,2.132c-1.532,0.606 -2.283,2.342 -1.677,3.873c0.607,1.531 2.342,2.283 3.873,1.676Z" style="fill:#fff;"/><path d="M61.791,521.416l5.387,-2.132c1.532,-0.606 2.283,-2.342 1.677,-3.873c-0.606,-1.531 -2.342,-2.283 -3.873,-1.676l-5.387,2.132c-1.532,0.606 -2.283,2.342 -1.677,3.873c0.607,1.531 2.342,2.283 3.873,1.676Z" style="fill:#fff;"/><path d="M76.704,559.088l5.387,-2.132c1.532,-0.607 2.283,-2.342 1.676,-3.873c-0.606,-1.532 -2.341,-2.283 -3.873,-1.677l-5.387,2.133c-1.531,0.606 -2.282,2.341 -1.676,3.873c0.606,1.531 2.342,2.282 3.873,1.676Z" style="fill:#fff;"/><path d="M91.617,596.76l5.387,-2.133c1.531,-0.606 2.282,-2.341 1.676,-3.873c-0.606,-1.531 -2.342,-2.282 -3.873,-1.676l-5.387,2.132c-1.531,0.607 -2.282,2.342 -1.676,3.873c0.606,1.532 2.341,2.283 3.873,1.677Z" style="fill:#fff;"/></g><g><path d="M522.74,551.961l-48.989,-29.366l-11.467,74.675l60.456,-45.309Z" style="fill:#ddf5f5;"/><path d="M524.529,554.349c0.796,-0.597 1.242,-1.55 1.191,-2.542c-0.051,-0.993 -0.593,-1.895 -1.446,-2.406l-48.989,-29.365c-0.853,-0.511 -1.904,-0.564 -2.803,-0.142c-0.9,0.423 -1.53,1.266 -1.681,2.248l-11.466,74.675c-0.184,1.199 0.375,2.389 1.415,3.013c1.04,0.623 2.354,0.555 3.324,-0.172l60.455,-45.309Zm-58.186,36.15l51.053,-38.262l-41.37,-24.799l-9.683,63.061Z" style="fill:#fff;"/><path d="M604.805,303.964l28.996,8.962l19.993,20.403l-131.392,219.196l-16.684,-1.583l-21.883,-13.117l-10.422,-14.666l131.392,-219.195Z" style="fill:#454f6b;"/><path d="M605.686,301.113c-1.313,-0.406 -2.734,0.138 -3.441,1.317l-131.392,219.195c-0.609,1.016 -0.559,2.297 0.127,3.263l10.423,14.666c0.239,0.336 0.544,0.619 0.898,0.831l21.883,13.117c0.381,0.228 0.809,0.369 1.252,0.411l16.684,1.582c1.145,0.109 2.25,-0.45 2.841,-1.436l131.392,-219.195c0.698,-1.165 0.522,-2.654 -0.428,-3.623l-19.993,-20.403c-0.347,-0.354 -0.776,-0.616 -1.25,-0.763l-28.996,-8.962Zm-128.711,221.907l8.931,12.567l20.766,12.448l14.138,1.341l129.239,-215.604l-17.851,-18.218l-26.037,-8.048l-129.186,215.514Z" style="fill:#fff;"/><path d="M637.586,332.358l13.855,2.087l-129.907,216.718l-14.083,-1.707l130.135,-217.098Z" style="fill:#ddf5f5;"/><path d="M522.034,552.49l-15.697,-1.177l-44.053,45.957l59.75,-44.78Z" style="fill:#fff;"/><path d="M505.201,553.208l-22.501,-13.488l-20.416,57.55l42.917,-44.062Z" style="fill:#f2ffff;"/><path d="M616.79,319.892l22.502,13.489l-130.135,217.097l-4.687,-2.809l112.32,-227.777Z" style="fill:#f2ffff;"/><path d="M485.989,579.504l-7.145,0.594l-8.451,-5.066l-3.613,-7.042l-4.496,29.28l23.705,-17.766Z" style="fill:#454f6b;"/></g></g></svg>